<?xml version="1.0" encoding="UTF-8"?>
<svg id="Layer_1" xmlns="http://www.w3.org/2000/svg" version="1.1" viewBox="0 0 633 597">
  <!-- Generator: Adobe Illustrator 29.1.0, SVG Export Plug-In . SVG Version: 2.1.0 Build 142)  -->
  <defs>
    <style>
      .st0 {
        fill: #0071bc;
      }

      .st1 {
        fill: #fff;
      }
    </style>
  </defs>
  <rect class="st0" x="16" y="14" width="602.6" height="568" rx="62.4" ry="62.4"/>
  <path class="st1" d="M552,259.8c9.8,9.8,9.8,25.7,0,35.5,0,0,0,0,0,0-4.7,4.8-11.1,7.5-17.8,7.5-13.6,0-24.7-11-24.8-24.6,0,0,0-.2,0-.2,0-4,1-7.9,2.9-11.5l-154.6-154.6c-3.5,1.9-7.5,2.9-11.4,2.9-13.8,0-25-11-25.1-24.8,0-.1,0-.2,0-.3,0-6.7,2.8-13.1,7.5-17.8,4.6-4.7,10.9-7.5,17.5-7.5,6.7,0,13.1,2.7,17.7,7.5,7.8,7.7,9.6,19.7,4.4,29.4l154.1,154.1c3.6-1.8,7.6-2.8,11.6-2.9,6.7,0,13.1,2.6,17.8,7.3h0Z"/>
  <path class="st1" d="M228.2,496.3c9.9,9.8,9.9,25.8,0,35.7,0,0,0,0,0,0-4.6,4.7-10.9,7.4-17.5,7.5-13.8,0-25-11.1-25-24.8,0-.1,0-.3,0-.4,0-4,1-8,2.9-11.6l-86.6-86.2c-3.6,1.9-7.6,2.9-11.6,2.9-13.8,0-25-11.2-25-25,0-6.6,2.7-13,7.3-17.7,9.7-9.8,25.6-9.8,35.4,0,7.8,7.7,9.6,19.7,4.5,29.4l86.3,86.1c3.5-1.8,7.5-2.8,11.4-2.9,6.7-.1,13.1,2.4,17.9,7.1h0Z"/>
  <path class="st1" d="M299.1,493.5c9.8,10,9.6,26-.4,35.8-4.7,4.6-10.9,7.2-17.5,7.2-13.8,0-25-11.2-25-25,0-4.1,1-8.1,2.9-11.7l-154.3-154.1c-3.6,1.9-7.6,2.9-11.6,2.9-13.8.1-25.1-10.9-25.3-24.7,0-6.8,2.6-13.3,7.4-18,9.9-9.8,25.8-9.8,35.7,0,7.7,7.8,9.5,19.7,4.3,29.4h0l154.2,154c9.7-5.1,21.6-3.3,29.4,4.4h0Z"/>
  <path class="st1" d="M306.2,418.9c9.8,10,9.6,26-.4,35.8-4.7,4.6-10.9,7.2-17.5,7.2-13.7,0-24.9-11-24.9-24.8,0-.1,0-.3,0-.4,0-4,1-8,2.9-11.5l-86.8-86.3c-3.5,1.9-7.5,2.9-11.5,2.9-13.8,0-25-11.2-25-25,0-6.7,2.6-13,7.3-17.7,9.7-9.8,25.6-9.9,35.5-.2,7.8,7.7,9.7,19.6,4.6,29.4l85.8,86.2c3.6-1.8,7.5-2.8,11.5-2.9,6.9-.3,13.7,2.3,18.6,7.2h0Z"/>
  <path class="st1" d="M323.3,347.5c4.8,4.7,7.6,11.2,7.5,17.9,0,6.7-2.8,13-7.5,17.7-4.6,4.8-11,7.5-17.6,7.5-13.8.2-25-10.9-25.2-24.6,0-4.3,1-8.5,3.1-12.3l-32.3-32.3c-3.6,1.8-7.6,2.8-11.6,2.9-13.8,0-25-11.4-24.9-25.2,0-6.6,2.7-12.9,7.3-17.5,4.7-4.8,11-7.5,17.7-7.5,13.7-.4,25.1,10.4,25.5,24.1.1,4.3-.9,8.6-2.9,12.5l32.4,32.5c3.6-1.9,7.5-2.9,11.5-2.9,6.4.1,12.6,2.8,17.1,7.4Z"/>
  <path class="st1" d="M332.1,283.7c9.8,9.9,9.8,25.8,0,35.7-9.9,9.8-25.8,9.8-35.7,0-9.8-9.8-9.8-25.8,0-35.7,9.9-9.8,25.8-9.8,35.7,0Z"/>
  <path class="st1" d="M405.9,284.1c9.8,9.8,9.8,25.6,0,35.4,0,0,0,0,0,0-4.7,4.7-11,7.4-17.7,7.5-13.8,0-24.9-11.2-24.9-25,0-4.1,1-8.1,2.9-11.7l-32.4-32.4c-3.6,1.8-7.5,2.8-11.5,2.9-6.6,0-13-2.8-17.6-7.5-9.8-10-9.6-26,.4-35.8,4.7-4.6,10.9-7.2,17.5-7.2,13.8,0,25,11.1,25,24.8,0,.1,0,.2,0,.3,0,4.1-1,8-2.9,11.7l32.2,32.2c9.7-4.8,21.3-2.9,28.9,4.7h0Z"/>
  <path class="st1" d="M399.1,104.8c-9.8-9.8-9.8-25.8,0-35.6,4.6-4.8,10.9-7.5,17.5-7.5,6.8-.2,13.3,2.5,17.8,7.5,4.8,4.7,7.6,11.1,7.5,17.8,0,4-1,7.9-2.8,11.4l86.3,86.1c3.6-1.9,7.6-2.9,11.6-2.9,6.7,0,13,2.8,17.7,7.5,9.8,9.9,9.6,25.9-.3,35.7-4.7,4.6-10.9,7.2-17.5,7.2-13.6,0-24.8-10.9-24.9-24.5,0-.2,0-.4,0-.6,0-4.1.9-8.2,2.7-11.8l-86.2-86.3c-3.6,1.9-7.5,2.9-11.6,3h-.4c-6.6,0-12.9-2.5-17.6-7.1Z"/>
  <path class="st1" d="M477.4,266.5c9.8,9.8,9.8,25.6,0,35.4,0,0,0,0,0,0-4.7,4.7-11.1,7.4-17.8,7.5-6.6,0-13-2.8-17.6-7.5-4.9-4.7-7.6-11.2-7.5-18,0-4,1-8,2.9-11.5l-86-85.9c-3.5,1.8-7.5,2.8-11.4,2.9-6.6,0-13-2.8-17.6-7.5-9.5-10.2-9-26.1,1.1-35.7,9.7-9.1,24.8-9.1,34.5,0,4.8,4.7,7.5,11.1,7.5,17.8,0,4-1,8-2.9,11.6l85.4,86.5c3.6-1.8,7.6-2.8,11.6-2.9,6.7,0,13.1,2.6,17.8,7.3h0Z"/>
</svg>